<svg width=" 100%" height=" 100%" viewBox="0 0 121 32" fill="none" xmlns="http://www.w3.org/2000/svg">
<path d="M60.3032 23.464V23.032H60.3155C62.1482 23.032 62.6525 22.516 62.6525 20.62V14.116C62.6525 11.512 61.8407 10.348 60.0326 10.348C58.8887 10.348 57.6587 10.972 56.3918 12.208L56.3426 12.256V20.608C56.3426 22.408 56.9084 22.984 58.7288 23.02V23.452H50.8076V23.02C52.6526 22.984 53.1938 22.432 53.1938 20.608V12.76C53.1938 10.972 52.8248 10.312 51.8162 10.312C51.4841 10.312 50.9675 10.432 50.5493 10.576V10.12L55.1495 8.75199C55.334 8.70399 55.4939 8.67999 55.6415 8.67999C56.0966 8.67999 56.3303 8.95599 56.3303 9.49599V11.284L56.6132 10.96C58.2983 9.01599 59.7128 8.24799 61.6562 8.24799C64.4237 8.24799 65.7767 9.97599 65.7767 13.516V20.632C65.7767 22.456 66.3671 23.044 68.1998 23.044V23.476H60.3032V23.464Z" fill="currentColor"></path>
<path d="M74.6819 23.932C72.7016 23.932 71.1518 23.272 69.9587 21.892C68.7779 20.548 68.1752 18.772 68.1752 16.636C68.1752 14.32 68.8763 12.4 70.3154 10.744C71.7545 9.05201 73.5503 8.23602 75.8258 8.23602C77.2649 8.23602 78.3842 8.63201 79.1345 9.40001L79.4174 9.68801V5.48802C79.4174 3.19601 79.0361 2.46401 77.8307 2.46401C77.5355 2.46401 77.0189 2.57201 76.6499 2.69201L76.6622 2.22401L81.7667 0.664015C81.8282 0.652015 81.8897 0.640015 81.9512 0.640015C82.2833 0.640015 82.5539 0.904015 82.5539 1.22801V19.096C82.5539 21.448 82.9475 22.612 83.8454 22.852C84.0545 22.912 84.5711 22.96 85.2599 22.972V23.416L80.2907 23.368H79.4174V21.844L79.1468 22.072C77.6831 23.332 76.2194 23.932 74.6819 23.932ZM75.8504 9.14802C73.3904 9.14802 71.7299 11.692 71.7299 15.472C71.7299 19.468 73.6487 22.264 76.3793 22.264C77.351 22.264 78.3596 21.796 79.3805 20.872L79.4297 20.824V13.876C79.442 10.876 78.1382 9.14802 75.8504 9.14802Z" fill="currentColor"></path>
<path d="M91.988 23.932C89.9462 23.932 88.2857 23.236 86.8958 21.796C85.5797 20.356 84.9032 18.52 84.9032 16.348C84.9032 13.972 85.5674 12.016 86.8589 10.516C88.175 9.00399 89.9339 8.24799 92.0864 8.24799C95.8133 8.24799 98.2364 10.54 98.3102 14.104H87.4001V14.26C87.4001 18.472 89.5526 21.088 93.0212 21.088C95.2229 21.088 96.8588 20.044 97.892 17.968L98.261 18.232C97.9289 19.84 97.2032 21.196 96.1085 22.264C94.9523 23.392 93.6116 23.932 91.988 23.932ZM91.2746 9.20799C89.2328 9.20799 87.5846 10.876 87.437 13.096L87.4247 13.264H94.7924L94.7801 13.096C94.6448 10.624 93.3656 9.20799 91.2746 9.20799Z" fill="currentColor"></path>
<path d="M100.45 23.464V5.61999C100.45 3.43599 100.044 2.70399 98.8637 2.70399C98.5316 2.70399 98.0027 2.78799 97.6337 2.90799V2.49999L102.64 0.663991C102.701 0.639991 102.775 0.627991 102.849 0.627991H102.984C103.316 0.627991 103.587 0.891991 103.587 1.21599V20.632C103.587 22.36 104.214 23.008 105.973 23.044V23.476H100.45V23.464Z" fill="currentColor"></path>
<path d="M116.982 23.932C115.727 23.932 115.112 23.224 115.075 21.76L115.063 21.424L114.804 21.64C113.021 23.152 111.447 23.932 110.13 23.932C107.744 23.932 106.256 22.54 106.256 20.32C106.256 19.12 106.883 18.052 108.15 17.068C109.454 16.072 111.742 15.028 114.952 13.96L115.063 13.924V13.816C115.063 10.852 114.608 9.14799 112.258 9.14799C110.266 9.14799 109.848 10.204 109.848 11.092C109.848 12.688 109.331 13.468 108.261 13.468C107.4 13.468 106.822 12.88 106.822 12.004C106.822 10.996 107.338 10.144 108.396 9.39999C109.491 8.63199 110.955 8.24799 112.763 8.24799C116.416 8.24799 118.199 9.71199 118.199 12.712V19.48C118.199 21.4 118.494 21.856 119.011 22.012C119.06 22.024 119.109 22.036 119.171 22.036C119.466 22.036 119.823 21.808 120.241 21.376L120.585 21.784C119.442 23.212 118.224 23.932 116.982 23.932ZM114.854 14.812C110.709 16.456 109.442 17.584 109.442 19.612C109.442 20.968 110.45 21.988 111.779 21.988C112.664 21.988 113.722 21.544 115.014 20.644L115.075 20.596V14.728L114.854 14.812Z" fill="currentColor"></path>
<path d="M46.8471 23.932C45.5925 23.932 44.9775 23.224 44.9406 21.76L44.9283 21.424L44.67 21.64C42.8865 23.152 41.3121 23.932 39.996 23.932C37.6098 23.932 36.1215 22.54 36.1215 20.32C36.1215 19.12 36.7488 18.052 38.0157 17.068C39.3195 16.072 41.6073 15.028 44.8176 13.96L44.9283 13.924V13.816C44.9283 10.852 44.4732 9.14799 42.1239 9.14799C40.1313 9.14799 39.7131 10.204 39.7131 11.092C39.7131 12.688 39.1965 13.468 38.1264 13.468C37.2654 13.468 36.6873 12.88 36.6873 12.004C36.6873 10.996 37.2039 10.144 38.2617 9.39999C39.3441 8.63199 40.8201 8.24799 42.6282 8.24799C46.2936 8.24799 48.0648 9.71199 48.0648 12.712V19.48C48.0648 21.4 48.36 21.856 48.8766 22.012C48.9258 22.024 48.975 22.036 49.0365 22.036C49.3317 22.036 49.6884 21.82 50.1066 21.376L50.451 21.784C49.3071 23.212 48.1017 23.932 46.8471 23.932ZM44.7192 14.812C40.5741 16.456 39.3072 17.572 39.3072 19.612C39.3072 20.968 40.3158 21.988 41.6442 21.988C42.5298 21.988 43.5876 21.544 44.8791 20.644L44.9406 20.596V14.728L44.7192 14.812Z" fill="currentColor"></path>
<path d="M25.8509 7.19198L25.8386 7.17998L25.6787 7.08398L25.6418 7.05998L17.0072 2.19998L16.8596 2.11598C16.1216 1.70798 15.2729 1.47998 14.3627 1.47998C13.4525 1.47998 12.6038 1.70798 11.8781 2.11598L11.7551 2.18798L11.7182 2.21198L3.03442 7.09598L2.86222 7.19198H2.84992C1.38622 8.06798 0.402222 9.65198 0.402222 11.452V21.412C0.402222 23.224 1.38622 24.796 2.86222 25.672L2.97292 25.732L11.8166 30.712C12.5669 31.132 13.4279 31.372 14.3627 31.372C15.2852 31.372 16.1585 31.132 16.9088 30.712L25.7402 25.732L25.7648 25.72C27.29 24.856 28.3232 23.248 28.3232 21.4V11.44C28.3109 9.63998 27.3269 8.05598 25.8509 7.19198ZM26.2322 16.576H26.183C19.7501 16.6 14.5103 21.736 14.5103 28.012C14.5103 28.096 14.4365 28.156 14.3627 28.156C14.2766 28.156 14.2151 28.084 14.2151 28.012V27.964C14.1905 21.688 8.92612 16.576 2.49322 16.576C2.40712 16.576 2.34562 16.504 2.34562 16.432C2.34562 16.348 2.41942 16.288 2.49322 16.288H2.54242C8.97532 16.264 14.2151 11.128 14.2151 4.85198C14.2151 4.76798 14.2889 4.70798 14.3627 4.70798C14.4488 4.70798 14.5103 4.77998 14.5103 4.85198C14.5103 11.152 19.7624 16.288 26.2322 16.288C26.3183 16.288 26.3798 16.36 26.3798 16.432C26.3921 16.516 26.3183 16.576 26.2322 16.576Z" fill="currentColor"></path>
</svg>
