<svg width="22" height="14" viewBox="0 0 22 14" fill="none" xmlns="http://www.w3.org/2000/svg">
<path d="M1 1H7C8.06087 1 9.07828 1.27129 9.82843 1.75419C10.5786 2.23709 11 2.89205 11 3.57497V12.5874C11 12.0752 10.6839 11.584 10.1213 11.2218C9.55871 10.8596 8.79565 10.6561 8 10.6561H1V1Z" stroke="#717171" stroke-width="2" stroke-linecap="round" stroke-linejoin="round"/>
<path d="M21 1H15C13.9391 1 12.9217 1.27129 12.1716 1.75419C11.4214 2.23709 11 2.89205 11 3.57497V12.5874C11 12.0752 11.3161 11.584 11.8787 11.2218C12.4413 10.8596 13.2044 10.6561 14 10.6561H21V1Z" stroke="#717171" stroke-width="2" stroke-linecap="round" stroke-linejoin="round"/>
</svg>
