<svg width="20" height="20" viewBox="0 0 20 20" fill="none" xmlns="http://www.w3.org/2000/svg">
<path d="M14.2806 7.19228C14.3504 7.26193 14.4057 7.34465 14.4434 7.4357C14.4812 7.52674 14.5006 7.62434 14.5006 7.7229C14.5006 7.82146 14.4812 7.91906 14.4434 8.01011C14.4057 8.10115 14.3504 8.18387 14.2806 8.25353L9.03063 13.5035C8.96097 13.5733 8.87826 13.6286 8.78721 13.6663C8.69616 13.7041 8.59857 13.7235 8.5 13.7235C8.40144 13.7235 8.30385 13.7041 8.2128 13.6663C8.12175 13.6286 8.03903 13.5733 7.96938 13.5035L5.71938 11.2535C5.57865 11.1128 5.49959 10.9219 5.49959 10.7229C5.49959 10.5239 5.57865 10.333 5.71938 10.1923C5.86011 10.0515 6.05098 9.97248 6.25 9.97248C6.44903 9.97248 6.6399 10.0515 6.78063 10.1923L8.5 11.9126L13.2194 7.19228C13.289 7.12254 13.3718 7.06722 13.4628 7.02948C13.5538 6.99174 13.6514 6.97231 13.75 6.97231C13.8486 6.97231 13.9462 6.99174 14.0372 7.02948C14.1283 7.06722 14.211 7.12254 14.2806 7.19228ZM19.75 9.9729C19.75 11.9013 19.1782 13.7863 18.1068 15.3897C17.0355 16.9931 15.5127 18.2428 13.7312 18.9807C11.9496 19.7187 9.98919 19.9118 8.09787 19.5356C6.20656 19.1594 4.46927 18.2308 3.10571 16.8672C1.74215 15.5036 0.813554 13.7663 0.437348 11.875C0.061142 9.98372 0.254225 8.02332 0.992179 6.24174C1.73013 4.46016 2.97982 2.93742 4.58319 1.86607C6.18657 0.794728 8.07164 0.2229 10 0.2229C12.585 0.22563 15.0634 1.25374 16.8913 3.08162C18.7192 4.90951 19.7473 7.38788 19.75 9.9729ZM18.25 9.9729C18.25 8.3412 17.7661 6.74615 16.8596 5.38945C15.9531 4.03274 14.6646 2.97532 13.1571 2.35089C11.6497 1.72647 9.99085 1.56309 8.39051 1.88142C6.79017 2.19975 5.32016 2.98549 4.16637 4.13927C3.01259 5.29305 2.22685 6.76306 1.90853 8.36341C1.5902 9.96375 1.75358 11.6225 2.378 13.13C3.00242 14.6375 4.05984 15.926 5.41655 16.8325C6.77326 17.739 8.36831 18.2229 10 18.2229C12.1873 18.2204 14.2843 17.3504 15.8309 15.8038C17.3775 14.2572 18.2475 12.1602 18.25 9.9729Z" fill="#1400FF"/>
</svg>
