<svg width="700" height="194" viewBox="0 0 700 194" fill="none" xmlns="http://www.w3.org/2000/svg">
<path d="M71.161 120.622C67.502 126.683 62.8967 131.356 57.3452 134.64C51.7936 137.923 45.8004 139.565 39.3657 139.565C27.3793 139.565 17.7902 135.46 10.5984 127.252C3.53281 118.917 0 106.856 0 91.0703C0 83.1142 1.07246 76.1684 3.21739 70.2328C5.36231 64.171 8.26426 59.1827 11.9232 55.2678C15.5822 51.3528 19.809 48.4482 24.6035 46.5539C29.5242 44.5333 34.6973 43.523 40.1227 43.523C46.0528 43.523 51.7936 44.849 57.3452 47.5011C63.0229 50.0268 67.6282 54.6995 71.161 61.519V45.6067H81.0024V130.472C81.0024 139.06 80.3084 146.511 78.9206 152.825C77.6588 159.139 75.4508 164.317 72.2965 168.358C69.2684 172.526 65.2309 175.557 60.184 177.451C55.1371 179.472 48.9547 180.482 41.6367 180.482C31.0383 180.482 22.3955 178.146 15.7084 173.473C9.14747 168.8 5.42539 161.539 4.54219 151.688H15.8977C17.0332 158.887 19.9352 164.065 24.6035 167.222C29.2719 170.505 34.9496 172.147 41.6367 172.147C45.9266 172.147 49.901 171.516 53.56 170.253C57.219 169.116 60.3102 167.032 62.8336 164.001C65.4832 160.971 67.502 156.866 68.8899 151.688C70.404 146.511 71.161 139.944 71.161 131.987V120.622ZM40.1227 52.6157C36.4637 52.6157 32.8678 53.4366 29.335 55.0783C25.9283 56.7201 22.9002 59.1827 20.2506 62.4662C17.601 65.6233 15.4561 69.6014 13.8158 74.4003C12.1756 79.1993 11.3555 84.7559 11.3555 91.0703C11.3555 103.699 14.0051 113.423 19.3043 120.243C24.7297 127.062 31.6692 130.472 40.1227 130.472C45.0434 130.472 49.3963 129.525 53.1815 127.631C56.9666 125.61 60.1209 122.832 62.6444 119.296C65.1678 115.76 67.0604 111.592 68.3221 106.793C69.71 101.994 70.4039 96.7532 70.4039 91.0703C70.4039 85.7662 69.71 80.7778 68.3221 76.1052C67.0604 71.4326 65.1678 67.3914 62.6444 63.9816C60.1209 60.4455 56.9666 57.6672 53.1815 55.6466C49.3963 53.626 45.0434 52.6157 40.1227 52.6157Z" fill="black"/>
<path d="M191.077 96.3744H119.159C119.159 102.689 119.916 108.435 121.43 113.613C123.07 118.79 125.278 123.21 128.054 126.873C130.956 130.535 134.299 133.44 138.084 135.587C141.996 137.607 146.286 138.618 150.954 138.618C157.389 138.618 163.003 136.66 167.798 132.745C172.592 128.704 176.062 123.653 178.207 117.591H189.563C187.039 127.062 182.308 134.45 175.368 139.754C168.555 145.058 160.417 147.71 150.954 147.71C144.519 147.71 138.652 146.574 133.353 144.301C128.054 142.027 123.512 138.681 119.726 134.261C115.941 129.714 112.976 124.221 110.831 117.78C108.812 111.339 107.803 103.952 107.803 95.6167C107.803 88.0394 108.812 81.0304 110.831 74.5898C112.85 68.1491 115.689 62.5924 119.348 57.9198C123.007 53.1209 127.423 49.3954 132.596 46.7433C137.895 44.0913 143.762 42.7653 150.197 42.7653C162.688 42.7653 172.592 47.0591 179.91 55.6466C187.355 64.1079 191.077 76.6735 191.077 93.3435V96.3744ZM150.197 51.858C146.033 51.858 142.185 52.8051 138.652 54.6995C135.245 56.4675 132.217 58.9932 129.568 62.2767C127.044 65.4339 124.899 69.1594 123.133 73.4532C121.493 77.747 120.357 82.3565 119.726 87.2817H179.532C178.649 76.1684 175.684 67.5177 170.637 61.3296C165.716 55.0152 158.903 51.858 150.197 51.858Z" fill="black"/>
<path d="M247.401 59.0564V111.529C247.401 116.58 247.969 120.748 249.105 124.031C250.24 127.315 251.754 129.967 253.647 131.987C255.54 133.882 257.811 135.271 260.46 136.155C263.11 136.913 265.949 137.292 268.977 137.292C271.248 137.292 273.582 137.165 275.979 136.913C278.503 136.66 281.089 136.281 283.739 135.776V144.869C277.935 145.879 272.636 146.384 267.841 146.384C263.299 146.384 259.135 145.879 255.35 144.869C251.565 143.732 248.285 141.838 245.509 139.186C242.733 136.534 240.588 133.061 239.074 128.767C237.56 124.347 236.803 118.854 236.803 112.287V59.0564H207.279V49.9637H236.803V18.3286H247.401V49.9637H281.468V59.0564H247.401Z" fill="black"/>
<path d="M387.757 45.6067V180.482H377.159V128.767C373.5 135.208 369.02 139.88 363.721 142.785C358.422 145.563 352.555 146.953 346.12 146.953C340.19 146.953 334.702 145.879 329.655 143.732C324.608 141.585 320.255 138.365 316.596 134.071C313.063 129.651 310.287 124.221 308.269 117.78C306.25 111.213 305.241 103.573 305.241 94.8589C305.241 86.0188 306.376 78.3784 308.647 71.9377C310.918 65.3708 313.946 60.0035 317.732 55.836C321.643 51.6686 326.122 48.5745 331.169 46.5539C336.216 44.5333 341.452 43.523 346.877 43.523C352.934 43.523 358.674 44.9122 364.1 47.6905C369.525 50.3425 374.13 55.2046 377.916 62.2767V45.6067H387.757ZM346.877 52.6157C343.218 52.6157 339.559 53.4997 335.9 55.2678C332.241 56.9095 328.961 59.4984 326.059 63.0344C323.283 66.4442 321.012 70.8011 319.246 76.1052C317.479 81.4093 316.596 87.6605 316.596 94.8589C316.596 102.057 317.353 108.372 318.867 113.802C320.507 119.106 322.652 123.589 325.302 127.252C328.078 130.788 331.295 133.44 334.954 135.208C338.739 136.976 342.714 137.86 346.877 137.86C351.672 137.86 355.899 136.85 359.558 134.829C363.217 132.682 366.308 129.777 368.831 126.115C371.481 122.453 373.5 118.159 374.887 113.234C376.275 108.182 377.032 102.689 377.159 96.7532V93.154C377.032 87.4711 376.275 82.167 374.887 77.2418C373.5 72.3166 371.481 68.0228 368.831 64.3605C366.308 60.6981 363.217 57.8566 359.558 55.836C355.899 53.6892 351.672 52.6157 346.877 52.6157Z" fill="black"/>
<path d="M484.015 45.6067H494.614V144.869H484.772V128.957C483.384 131.987 481.492 134.64 479.095 136.913C476.697 139.186 473.985 141.143 470.957 142.785C467.928 144.301 464.774 145.437 461.494 146.195C458.213 146.953 455.122 147.331 452.22 147.331C442.126 147.331 434.177 144.174 428.373 137.86C422.57 131.419 419.668 121.379 419.668 107.74V45.6067H430.266V106.983C430.266 111.403 430.645 115.507 431.402 119.296C432.285 123.084 433.61 126.368 435.376 129.146C437.269 131.924 439.666 134.134 442.568 135.776C445.596 137.418 449.318 138.239 453.734 138.239C457.267 138.239 460.863 137.544 464.522 136.155C468.181 134.64 471.398 132.429 474.174 129.525C477.076 126.494 479.41 122.768 481.176 118.348C483.069 113.802 484.015 108.498 484.015 102.436V45.6067Z" fill="black"/>
<path d="M527.092 49.9637H567.972V135.776H598.253V144.869H527.092V135.776H557.373V59.0564H527.092V49.9637ZM554.345 27.4213V7.72046H569.486V27.4213H554.345Z" fill="black"/>
<path d="M634.895 61.519C636.157 58.4881 637.987 55.8361 640.384 53.5629C642.907 51.2897 645.683 49.3954 648.711 47.8799C651.739 46.2382 654.894 45.0385 658.174 44.2807C661.454 43.523 664.546 43.1441 667.448 43.1441C677.541 43.1441 685.49 46.3645 691.294 52.8051C697.098 59.1195 700 69.0963 700 82.7353V144.869H689.402V83.493C689.402 79.1993 688.96 75.1581 688.077 71.3694C687.32 67.4545 685.995 64.1079 684.102 61.3296C682.336 58.5512 679.939 56.3412 676.911 54.6995C674.009 53.0577 670.35 52.2369 665.934 52.2369C662.401 52.2369 658.868 52.9314 655.335 54.3206C651.802 55.7098 648.585 57.8567 645.683 60.7613C642.907 63.5396 640.573 67.0756 638.68 71.3694C636.788 75.5369 635.779 80.5253 635.652 86.3345V144.869H625.054V45.6067H634.895V61.519Z" fill="black"/>
</svg>
